<?xml version="1.0" standalone="no"?>
<!DOCTYPE svg PUBLIC "-//W3C//DTD SVG 20010904//EN"
 "http://www.w3.org/TR/2001/REC-SVG-20010904/DTD/svg10.dtd">
<svg version="1.0" xmlns="http://www.w3.org/2000/svg"
 width="456.000000pt" height="547.000000pt" viewBox="0 0 456.000000 547.000000"
 preserveAspectRatio="xMidYMid meet">

<g transform="translate(0.000000,547.000000) scale(0.100000,-0.100000)"
fill="#000000" stroke="none">
<path d="M1395 3023 c-3 -10 -33 -92 -66 -183 -33 -91 -67 -182 -75 -203 -8
-20 -14 -40 -14 -42 0 -3 24 -5 54 -5 l55 0 13 48 14 47 79 0 79 0 15 -47 15
-48 53 0 c29 0 53 3 53 8 0 4 -34 105 -77 224 l-78 218 -56 0 c-45 0 -58 -4
-64 -17z m88 -175 c14 -43 22 -80 19 -83 -7 -7 -87 -7 -94 0 -3 3 6 41 21 85
14 43 26 78 28 77 1 -1 13 -37 26 -79z"/>
<path d="M1750 3000 l0 -40 40 0 40 0 0 -129 c0 -71 -3 -136 -6 -145 -4 -12
-20 -16 -55 -16 l-49 0 0 -41 0 -42 82 5 c73 4 84 8 105 32 22 26 23 32 23
222 l0 194 -90 0 -90 0 0 -40z"/>
<path d="M2000 2815 l0 -225 50 0 50 0 0 225 0 225 -50 0 -50 0 0 -225z"/>
<path d="M2269 3019 l-24 -20 30 17 c39 24 40 24 28 24 -6 0 -21 -9 -34 -21z"/>
<path d="M2368 2873 l-2 -168 -3 146 c-3 137 -5 148 -26 165 -22 19 -22 19 -5
-1 12 -15 16 -41 17 -104 1 -75 -1 -82 -17 -77 -16 6 -16 5 1 -8 12 -10 17
-28 17 -70 l0 -56 38 1 c23 1 28 3 15 6 -21 4 -23 10 -23 74 0 39 4 69 10 69
6 0 10 -6 10 -12 0 -9 3 -9 8 -2 4 6 15 13 25 17 9 3 17 11 17 16 0 17 -21 24
-33 12 -9 -9 -8 -11 6 -6 10 4 17 2 17 -4 0 -6 -13 -11 -30 -11 l-30 0 0 85
c0 76 2 85 19 85 29 0 85 -43 103 -80 10 -19 18 -27 18 -18 0 39 -83 108 -130
108 -19 0 -20 -6 -22 -167z"/>
<path d="M2695 3010 c-18 -20 -18 -21 3 -43 l22 -21 20 20 20 20 -23 22 -24
22 -18 -20z"/>
<path d="M2807 3012 c-21 -23 -21 -29 -3 -48 19 -19 30 -18 49 4 16 17 15 20
-6 40 -23 22 -24 22 -40 4z"/>
<path d="M2462 2975 c9 -11 21 -31 27 -45 7 -17 10 -20 10 -8 1 10 -11 30 -26
46 -16 15 -20 19 -11 7z"/>
<path d="M2228 2973 c-9 -10 -19 -36 -22 -58 -6 -35 -4 -44 16 -60 l23 -20
-17 21 c-20 23 -23 50 -8 59 5 3 7 12 4 20 -10 25 7 40 23 20 14 -20 16 -12 4
18 -6 18 -7 18 -23 0z"/>
<path d="M2240 2915 c0 -8 2 -15 4 -15 2 0 6 7 10 15 3 8 1 15 -4 15 -6 0 -10
-7 -10 -15z"/>
<path d="M2690 2912 c-53 -26 -80 -74 -80 -143 0 -47 5 -63 25 -88 33 -38 84
-55 146 -48 46 6 48 5 40 -16 -13 -35 -53 -57 -122 -67 -35 -5 -429 -10 -876
-10 l-813 0 0 145 0 145 60 0 60 0 0 40 0 40 -175 0 -175 0 0 -40 0 -40 60 0
60 0 0 -179 0 -179 358 -7 c196 -4 606 -5 910 -1 616 8 623 9 691 74 80 76 95
249 30 340 -35 49 -135 66 -199 34z m132 -79 c40 -36 7 -133 -46 -133 -32 0
-66 39 -66 77 0 61 68 96 112 56z"/>
<path d="M2521 2894 c0 -11 3 -14 6 -6 3 7 2 16 -1 19 -3 4 -6 -2 -5 -13z"/>
<path d="M3030 2690 l0 -220 50 0 50 0 0 80 c0 79 0 80 25 80 21 0 31 -12 65
-80 l40 -80 61 0 61 0 -23 38 c-12 20 -36 59 -52 86 l-31 49 25 19 c80 66 79
178 -4 228 -27 17 -51 20 -149 20 l-118 0 0 -220z m207 124 c36 -50 0 -104
-69 -104 l-38 0 0 58 c0 32 3 62 8 66 12 13 86 -2 99 -20z"/>
<path d="M3575 2898 c-2 -7 -16 -44 -31 -83 -14 -38 -39 -106 -54 -150 -16
-44 -38 -105 -49 -135 -12 -30 -21 -56 -21 -57 0 -2 24 -3 54 -3 l54 0 16 48
16 47 76 0 77 -1 15 -47 15 -47 53 0 c30 0 54 4 54 8 0 10 -60 178 -90 252 -9
25 -27 75 -40 113 l-22 67 -59 0 c-39 0 -61 -4 -64 -12z m91 -184 l22 -74 -55
0 c-30 0 -52 3 -50 8 3 4 15 40 27 80 12 41 24 71 28 67 4 -3 16 -40 28 -81z"/>
<path d="M2314 2879 c-3 -6 -15 -9 -25 -6 -11 3 -17 1 -13 -4 8 -14 30 -11 44
6 7 8 10 15 7 15 -3 0 -9 -5 -13 -11z"/>
<path d="M2263 2824 c-3 -8 -12 -13 -20 -10 -8 3 0 -10 18 -29 35 -36 55 -50
24 -15 -11 12 -16 29 -13 45 6 28 1 33 -9 9z"/>
<path d="M2290 2808 c0 -12 7 -18 23 -17 15 0 17 2 7 6 -8 3 -18 11 -22 17 -5
7 -8 4 -8 -6z"/>
<path d="M2467 2785 c-15 -14 -24 -25 -19 -25 5 0 19 11 32 25 30 32 23 32
-13 0z"/>
<path d="M2311 2657 c-1 -19 7 -35 22 -48 27 -23 41 -24 57 -4 9 10 9 15 1 15
-6 0 -11 -4 -11 -10 0 -32 -56 12 -63 50 -4 24 -4 24 -6 -3z"/>
<path d="M2421 2668 c0 -9 -4 -25 -7 -35 -5 -17 -5 -17 6 0 6 10 9 25 7 35 -4
15 -5 15 -6 0z"/>
</g>
</svg>
